<svg width="360" height="128" viewBox="0 0 360 128" fill="none" xmlns="http://www.w3.org/2000/svg"><g clip-path="url(#a)"><path fill="#fff" d="M0 0h360v128H0z"/><circle cx="196.5" cy="94.5" r="2.5" fill="#fff"/><path d="M58 102H34v4h24v-4z" fill="url(#b)"/><path d="M71 26a5 5 0 0 1 5-5h32a5 5 0 0 1 5 5v74a5 5 0 0 1-5 5H76a5 5 0 0 1-5-5V26z" fill="#fff" stroke="#E8EAED" stroke-width="2"/><path fill="#F8F9FA" stroke="#E8EAED" stroke-width="2" d="M71 31h42v65H71z"/><rect x="85" y="25" width="14" height="2" rx="1" fill="#E8EAED"/><rect x="95" y="46" width="30" height="26" rx="5" fill="#fff" stroke="#E8EAED" stroke-width="2"/><path d="M118 51h-16c-1.1 0-2 .9-2 2v12c0 1.1.9 2 2 2h16c1.1 0 2-.9 2-2V53c0-1.1-.9-2-2-2zm-.8 2l-7.2 4.8-7.2-4.8h14.4zM102 65V54.87l8 5.33 8-5.33V65h-16z" fill="#D93025"/><path d="M52 51a1 1 0 0 1 1-1h24a1 1 0 0 1 1 1v53a1 1 0 0 1-1 1H53a1 1 0 0 1-1-1V51zM59 38h12v12H59V38z" fill="#fff" stroke="#E8EAED" stroke-width="2"/><path d="M67 39v10M63 39v10" stroke="#E8EAED" stroke-width="2"/><circle cx="65" cy="91" r="5" fill="#F8F9FA" stroke="#DADCE0" stroke-width="2"/><path d="M270 102h-24v4h24v-4z" fill="url(#c)"/><path d="M319 21a3 3 0 0 1 3 3v78a3 3 0 0 1-3 3h-56a3 3 0 0 1-3-3V24a3 3 0 0 1 3-3h56z" fill="#fff" stroke="#E8EAED" stroke-width="2"/><path fill="#F8F9FA" stroke="#E8EAED" stroke-width="2" d="M317 26v73h-52V26z"/><rect x="248" y="46" width="86" height="26" rx="5" fill="#fff" stroke="#E8EAED" stroke-width="2"/><rect x="321" y="52" width="2" height="14" rx="1" fill="#DADCE0"/><circle cx="266" cy="59" r="3" fill="#34A853"/><circle cx="294" cy="59" r="3" fill="#34A853"/><circle cx="280" cy="59" r="3" fill="#34A853"/><circle cx="308" cy="59" r="3" fill="#34A853"/><path d="M166 124h-24v4h24v-4z" fill="url(#d)"/><path d="M191.5 69c-1.626.939-1.359 3.676.049 6.114 1.408 2.439 3.825 3.325 5.451 2.386" stroke="#E8EAED" stroke-width="2" stroke-linecap="round"/><path transform="rotate(90 176 79)" fill="url(#e)" d="M176 79h49v6h-49z"/><path d="M173 80c-6.075 0-11-4.925-11-11s4.925-11 11-11 11 4.925 11 11-4.925 11-11 11z" stroke="#FBBC04" stroke-width="6"/><path fill="#FBBC04" d="M170 122v6h-6v-6zM170 110v6h-6v-6z"/><path d="M182.874 74.022a8.5 8.5 0 1 1 8.502-14.723 8.5 8.5 0 0 1-8.502 14.723z" stroke="#DADCE0" stroke-width="3"/><path d="M172 58c7-.5 12 4.5 12 11.127" stroke="#FBBC04" stroke-width="6"/><path d="M203 124h-27v4h27v-4z" fill="url(#f)"/><path fill-rule="evenodd" clip-rule="evenodd" d="M198.266 124.296a4.999 4.999 0 0 0 6.123 3.535l11.331-3.036a5.001 5.001 0 0 0 3.536-6.124l-11.808-44.065a5 5 0 0 0-6.124-3.536l-11.33 3.036a5 5 0 0 0-3.536 6.124l11.808 44.066zM197 79a2 2 0 1 0 0-4 2 2 0 0 0 0 4z" fill="url(#g)"/><path fill="#E8F0FE" d="M194.518 86.52L194 84.588 203.66 82l.517 1.932z"/><path fill-rule="evenodd" clip-rule="evenodd" d="M198.047 94.513l-.518 1.932 3.157.846-2.311 2.31 1.414 1.415 2.311-2.31.845 3.156 1.932-.518-.846-3.157 3.158.846.517-1.932-3.156-.846 2.31-2.31-1.414-1.414-2.311 2.31-.846-3.156-1.932.517.846 3.157-3.156-.846zM201.929 109.002l-.517 1.931 3.157.846-2.311 2.311 1.414 1.415 2.31-2.311.846 3.156 1.932-.517-.846-3.157 3.157.846.518-1.932-3.157-.846 2.311-2.31-1.414-1.415-2.312 2.312-.846-3.157-1.931.517.845 3.156-3.156-.845z" fill="#E8F0FE"/><path d="M197.098 77.53c1.626-.94 1.802-3.677.394-6.115-1.407-2.438-3.866-3.654-5.492-2.716" stroke="#E8EAED" stroke-width="2" stroke-linecap="round"/><path d="M197.098 77.53c1.626-.94 1.802-3.677.394-6.115-1.407-2.438-3.866-3.654-5.492-2.716" stroke="#E8EAED" stroke-width="2" stroke-linecap="round"/></g><defs><linearGradient id="b" x1="34" y1="104" x2="58" y2="104" gradientUnits="userSpaceOnUse"><stop stop-color="#BDC1C6" stop-opacity="0"/><stop offset="1" stop-color="#BDC1C6"/></linearGradient><linearGradient id="c" x1="246" y1="104" x2="270" y2="104" gradientUnits="userSpaceOnUse"><stop stop-color="#BDC1C6" stop-opacity="0"/><stop offset="1" stop-color="#BDC1C6"/></linearGradient><linearGradient id="d" x1="142" y1="126" x2="166" y2="126" gradientUnits="userSpaceOnUse"><stop stop-color="#BDC1C6" stop-opacity="0"/><stop offset="1" stop-color="#BDC1C6"/></linearGradient><linearGradient id="e" x1="225" y1="79" x2="178.579" y2="79" gradientUnits="userSpaceOnUse"><stop stop-color="#FBBC04"/><stop offset="1" stop-color="#F9AB00"/></linearGradient><linearGradient id="f" x1="176" y1="126" x2="203" y2="126" gradientUnits="userSpaceOnUse"><stop stop-color="#BDC1C6" stop-opacity="0"/><stop offset="1" stop-color="#BDC1C6"/></linearGradient><linearGradient id="g" x1="219" y1="107" x2="193" y2="118" gradientUnits="userSpaceOnUse"><stop stop-color="#428CFB"/><stop offset="1" stop-color="#185ABC"/></linearGradient><clipPath id="a"><path fill="#fff" d="M0 0h360v128H0z"/></clipPath></defs></svg>